<?xml version="1.0" standalone="no"?>
<!DOCTYPE svg PUBLIC "-//W3C//DTD SVG 20010904//EN"
 "http://www.w3.org/TR/2001/REC-SVG-20010904/DTD/svg10.dtd">
<svg version="1.0" xmlns="http://www.w3.org/2000/svg"
 width="260.000000pt" height="260.000000pt" viewBox="0 0 260.000000 260.000000"
 preserveAspectRatio="xMidYMid meet">
<metadata>
Created by potrace 1.11, written by Peter Selinger 2001-2013
</metadata>
<g transform="translate(0.000000,260.000000) scale(0.100000,-0.100000)"
fill="#000000" stroke="none">
<path d="M917 1833 c2 -10 79 -265 171 -568 l168 -550 114 -3 115 -3 114 378
c62 208 116 381 120 385 3 4 58 -166 121 -378 l115 -384 115 0 115 0 169 558
c93 306 171 563 174 570 3 9 -22 12 -106 12 l-110 0 -31 -97 c-17 -54 -70
-225 -118 -380 -48 -156 -90 -283 -93 -283 -3 0 -57 170 -121 378 l-116 377
-111 3 -111 3 -24 -78 c-13 -43 -66 -214 -117 -381 -52 -166 -97 -299 -101
-295 -4 5 -39 112 -79 238 -39 127 -92 294 -116 373 l-45 142 -109 0 c-98 0
-108 -2 -103 -17z"/>
<path d="M510 1528 c-1 -500 -15 -574 -117 -627 -39 -20 -162 -13 -225 13
l-58 24 -10 -37 c-5 -20 -16 -58 -25 -86 -17 -59 -15 -62 71 -95 73 -27 165
-34 254 -21 177 28 265 112 305 292 13 59 18 154 22 462 l6 387 -112 0 -111 0
0 -312z"/>
</g>
</svg>
